<svg xmlns="http://www.w3.org/2000/svg" viewBox="0 0 11.13 14"><defs><style>.cls-1{fill:#2c3035;}.cls-2{fill:#0177be;}</style></defs><g id="Layer_2" data-name="Layer 2"><g id="Layer_1-2" data-name="Layer 1"><path class="cls-1" d="M11.13,5.63,11,5.72,5.67,11.08a.61.61,0,0,0-.07.1L0,5.58,5.59,0l.07.07,5.4,5.4.07.06ZM5.56,10.7l5.13-5.13L5.58.45.44,5.58Z"/><path class="cls-1" d="M5.42,12.61c-.09,0-.12,0-.12-.08s-.1-.25-.31-.26-.37.07-.41.23a.25.25,0,0,0,.17.3l.39.08a.48.48,0,0,1,.37.74.61.61,0,0,1-.38.32,1.11,1.11,0,0,1-.82,0,.14.14,0,0,1-.06-.11c0-.1,0-.2,0-.29s0-.11.12-.08,0,.28.17.35a.62.62,0,0,0,.48,0,.3.3,0,0,0,.18-.31A.25.25,0,0,0,5,13.25l-.38-.1a.42.42,0,0,1-.37-.37.54.54,0,0,1,.24-.57,1.09,1.09,0,0,1,.9,0s0,.06,0,.1S5.43,12.49,5.42,12.61Z"/><path class="cls-1" d="M3.51,13.83v.11H2.7v-.11l.21,0c-.06-.13-.1-.26-.15-.38l-.06,0H2.15a.12.12,0,0,0-.07,0L2,13.79l.21.05c0,.05.05.11-.06.11H1.59v-.13c.14,0,.19-.06.23-.17.19-.46.37-.93.57-1.39,0-.06,0-.14.13-.15s.13.06.16.14c.21.46.41.93.61,1.4C3.32,13.76,3.37,13.84,3.51,13.83Zm-1.35-.6h.51l-.26-.63Z"/><path class="cls-1" d="M9.6,13.67a.17.17,0,0,1-.09.2,1.26,1.26,0,0,1-1.22-.06,1,1,0,0,1-.36-1,.9.9,0,0,1,.8-.66,1.65,1.65,0,0,1,.88.1c0,.13,0,.26,0,.38s-.06.05-.11.07c0-.14,0-.27-.16-.33a.76.76,0,0,0-.61,0,.72.72,0,0,0-.37.8.77.77,0,0,0,1.11.62Z"/><path class="cls-1" d="M7.19,13.86s-.05.08-.08.08H6.35v-.12c.2,0,.2,0,.21-.24V12.41c0-.1,0-.15-.13-.14s-.09-.06-.08-.13h.82c0,.09,0,.13-.09.13s-.12,0-.12.11c0,.43,0,.87,0,1.3C7,13.84,7.07,13.81,7.19,13.86Z"/><path class="cls-2" d="M5.56,1l4.61,4.6L8.82,6.91l-4.6-4.6Z"/><path class="cls-2" d="M3.94,2.6,5.29,4,3.66,5.57,5.29,7.19,3.93,8.54l-3-3Z"/><path class="cls-2" d="M5.58,4.24l3,3L7.2,8.54l-3-3Z"/><path class="cls-2" d="M5.58,7.51,6.9,8.84,5.56,10.18,4.24,8.85Z"/></g></g></svg>