<svg xmlns="http://www.w3.org/2000/svg" viewBox="0 0 12.39 14"><defs><style>.cls-1{fill:#074f71;}.cls-2{fill:#8c6b4f;}</style></defs><g id="Layer_2" data-name="Layer 2"><g id="Layer_1-2" data-name="Layer 1"><path class="cls-1" d="M0,13.72V11.89H4.73c.61,0,.61,0,.61-.62,0-1.58,0-3.16,0-4.74A2.66,2.66,0,0,1,8.16,3.69h4.2V5.76H8.18c-.57,0-.77.2-.77.76,0,1.68,0,3.35,0,5a2.31,2.31,0,0,1-.91,1.94l0,0a.1.1,0,0,1,0,0h0v0l-.08.05-.18.1L6,13.79l-.34.12-.26,0h-3l-2,0H.13Z"/><path class="cls-2" d="M3.77,10.34H1.68V7.92H0V5.86H1.53a16.68,16.68,0,0,1,.7-2.38A5.43,5.43,0,0,1,6.92.07c1.79-.14,3.59,0,5.47,0,0,.63,0,1.27,0,1.91,0,.06-.22.16-.34.16-1.42,0-2.83.05-4.25,0a3.85,3.85,0,0,0-4,4c.05,1.25,0,2.5,0,3.75Z"/><path class="cls-2" d="M12.36,9.3H10.91V12h1.47c0,.65,0,1.26,0,1.87,0,.06-.15.15-.24.15H9.33c-.26,0-.36-.14-.36-.39V7.7c0-.25.09-.41.35-.41h3Z"/><path class="cls-2" d="M.35,14l2,0h3A2.73,2.73,0,0,1,5,14H.71Z"/><path class="cls-2" d="M5.64,13.91,6,13.79Z"/><path class="cls-2" d="M0,13.72.13,14Z"/><path class="cls-2" d="M6.12,13.73l.18-.1Z"/><path class="cls-2" d="M6.46,13.52l0,0A0,0,0,0,1,6.46,13.52Z"/><polygon class="cls-2" points="6.38 13.58 6.38 13.55 6.41 13.56 6.4 13.58 6.38 13.58"/></g></g></svg>