<svg xmlns="http://www.w3.org/2000/svg" viewBox="0 0 14 13.61"><g id="Layer_2" data-name="Layer 2"><g id="Layer_1-2" data-name="Layer 1"><path d="M14,7,12.54,8.46,7,2.93,1.48,8.47,0,7,7,0Z"/><path d="M8.41,7.05a1.41,1.41,0,1,1-2.81,0,1.41,1.41,0,1,1,2.81,0Z"/><path d="M3,12.26a1.19,1.19,0,0,1,.33,0,.38.38,0,0,1,.22.17.89.89,0,0,0,.84.6A1.71,1.71,0,0,0,5.05,13a.5.5,0,0,0,.33-.59c0-.18-.33-.39-.56-.44a8.74,8.74,0,0,1-1-.24A1.05,1.05,0,0,1,3.4,10a1.64,1.64,0,0,1,2.34.16,1.45,1.45,0,0,1,.18.35c0,.14,0,.24-.17.23s-.31,0-.41-.21a.79.79,0,0,0-.81-.45.76.76,0,0,0-.74.36.49.49,0,0,0,.24.72c.29.1.6.16.89.24a1.28,1.28,0,0,1,.9.53,1.11,1.11,0,0,1-.6,1.56,1.76,1.76,0,0,1-1.69-.18A1.16,1.16,0,0,1,3,12.26Z"/><path d="M9.58,12.05h.53a1.52,1.52,0,0,1-.54,1.06,1.72,1.72,0,0,1-1.89.36A1.85,1.85,0,0,1,6.49,12,2,2,0,0,1,7.57,9.73a1.81,1.81,0,0,1,2.52,1.1c0,.14,0,.21-.16.22a.42.42,0,0,1-.48-.26A1.17,1.17,0,0,0,8,10.13a1.37,1.37,0,0,0-1,1.11,1.57,1.57,0,0,0,.31,1.34A1.26,1.26,0,0,0,8.58,13,1.22,1.22,0,0,0,9.58,12.05Z"/><path d="M14,13.49a3.35,3.35,0,0,1-.45,0,.3.3,0,0,1-.17-.12c-.09-.18-.13-.39-.23-.56a.5.5,0,0,0-.29-.21c-.48,0-1,0-1.46,0a.26.26,0,0,0-.3.22,2.55,2.55,0,0,1-.22.54.24.24,0,0,1-.17.13,3.52,3.52,0,0,1-.47,0c.32-.78.63-1.51.94-2.24.2-.49.42-1,.61-1.45.1-.24.29-.13.43-.13a.29.29,0,0,1,.24.16c.37.84.72,1.69,1.08,2.54C13.69,12.73,13.83,13.09,14,13.49ZM12.85,12c-.3-.55-.41-1.14-.76-1.67L11.42,12Z"/><path d="M.54,13.48H0V9.67H2.56v.27c0,.17-.06.21-.21.21H.8c-.19,0-.27.06-.26.26s0,.53,0,.8.06.26.26.26c.42,0,.85,0,1.27,0h.25c0,.1,0,.18,0,.25S2.28,12,2.1,12c-.44,0-.87,0-1.31,0-.2,0-.26.07-.25.26C.55,12.62.54,13,.54,13.48Z"/></g></g></svg>