<svg xmlns="http://www.w3.org/2000/svg" viewBox="0 0 14 11.75"><defs><style>.cls-1{fill:#646550;}.cls-2{fill:#efb317;}</style></defs><g id="Layer_2" data-name="Layer 2"><g id="Layer_1-2" data-name="Layer 1"><path class="cls-1" d="M8.31,8a2,2,0,0,1,1.15.36,1.79,1.79,0,0,1,.75,1.15A1.85,1.85,0,0,1,9,11.6a2,2,0,0,1-1.19.1,1.91,1.91,0,0,1-1.22-.79,1.82,1.82,0,0,1-.27-.64,2,2,0,0,1,0-.65,1.78,1.78,0,0,1,.5-1,1.84,1.84,0,0,1,1-.55A3.7,3.7,0,0,1,8.31,8Zm0,.4a1.43,1.43,0,0,0-.46.07,1.25,1.25,0,0,0-.84,1,1.47,1.47,0,0,0,0,.66,1.49,1.49,0,0,0,.26.65,1.27,1.27,0,0,0,1.17.58A1.3,1.3,0,0,0,9.18,11a1.36,1.36,0,0,0,.44-1,1.67,1.67,0,0,0-.22-1A1.24,1.24,0,0,0,8.27,8.43Z"/><path class="cls-1" d="M3.34,8.13H4.52a1.69,1.69,0,0,1,.59.09.81.81,0,0,1,.44,1.23A1.16,1.16,0,0,1,5,9.89l-.13,0a.35.35,0,0,0,.06.09c.23.3.47.6.71.89a3.43,3.43,0,0,0,.75.67l.07.06H6a.79.79,0,0,1-.68-.33c-.15-.21-.33-.4-.49-.61s-.33-.48-.49-.72c0-.05-.07-.11-.11-.17l.3-.08A.94.94,0,0,0,5,9.49a.59.59,0,0,0-.26-1,1.11,1.11,0,0,0-.6,0,.28.28,0,0,0,0,.09v2.5a1.15,1.15,0,0,0,0,.26.37.37,0,0,0,.14.23s0,0,.06.06h-1l.06-.06a.36.36,0,0,0,.13-.24,1.53,1.53,0,0,0,0-.3V8.66a2.48,2.48,0,0,0,0-.27.34.34,0,0,0-.13-.2l0,0Z"/><path class="cls-1" d="M14,11.08l-.18.42,0,0a.24.24,0,0,1-.25.2l-.12,0c-.29,0-.59,0-.89,0a2,2,0,0,1-1.11-.41,1.62,1.62,0,0,1-.56-.82,2,2,0,0,1-.08-.65,1.81,1.81,0,0,1,.42-1.18,1.6,1.6,0,0,1,.67-.48,1.92,1.92,0,0,1,1.25-.07l.53.13c.06,0,.08,0,.08.1s0,.32,0,.47a.14.14,0,0,1,0,.06l-.21-.12a2.73,2.73,0,0,0-.64-.24,1.14,1.14,0,0,0-.45,0,1.16,1.16,0,0,0-.9.7,1.4,1.4,0,0,0-.11.7,1.41,1.41,0,0,0,.82,1.26,1.06,1.06,0,0,0,.49.11,3.37,3.37,0,0,0,.84-.08c.13,0,.24-.08.36-.12l.06,0Z"/><path class="cls-1" d="M1.67,8.13h1a.11.11,0,0,1,0,0,.39.39,0,0,0-.17.31c0,.15,0,.31,0,.46,0,.44,0,.87,0,1.31s0,.6,0,.89a.68.68,0,0,0,0,.2.4.4,0,0,0,.14.24l.06,0,0,0h-1s0,0,0-.05a.3.3,0,0,0,.14-.24,1.53,1.53,0,0,0,0-.3V8.64a1.27,1.27,0,0,0,0-.26.39.39,0,0,0-.17-.23Z"/><path class="cls-1" d="M0,8.14H1l0,0a.51.51,0,0,0-.19.4v2.58a2,2,0,0,0,0,.24.33.33,0,0,0,.14.21l0,0a7.74,7.74,0,0,1-1,0s0,0,0,0a.39.39,0,0,0,.17-.32c0-.13,0-.27,0-.4V8.58a1.25,1.25,0,0,0,0-.19A.38.38,0,0,0,0,8.18Z"/><path class="cls-2" d="M7.61,2.08a.72.72,0,0,1,.72-.72.71.71,0,0,1,.72.72.72.72,0,0,1-1.44,0Z"/><path class="cls-2" d="M7,0a.7.7,0,0,1,.71.73A.72.72,0,0,1,7,1.44.71.71,0,0,1,6.3.71.7.7,0,0,1,7,0Z"/><path class="cls-2" d="M10.42,3.44a.71.71,0,0,1-.73.72.72.72,0,0,1,0-1.44A.73.73,0,0,1,10.42,3.44Z"/><path class="cls-2" d="M4.3,4.14a.72.72,0,0,1-.72-.72A.73.73,0,1,1,5,3.43.72.72,0,0,1,4.3,4.14Z"/><path class="cls-2" d="M6.36,2.09a.72.72,0,1,1-1.43,0,.72.72,0,0,1,.72-.72A.71.71,0,0,1,6.36,2.09Z"/><path class="cls-2" d="M8.88,4.79a.54.54,0,1,1-.54-.54A.54.54,0,0,1,8.88,4.79Z"/><path class="cls-2" d="M5.11,4.78a.54.54,0,0,1,.53-.54.55.55,0,0,1,.54.56.54.54,0,0,1-.54.52A.53.53,0,0,1,5.11,4.78Z"/><path class="cls-2" d="M7,2.89a.52.52,0,0,1,.54.53.54.54,0,1,1-1.07,0A.52.52,0,0,1,7,2.89Z"/><path class="cls-2" d="M7.39,6.11a.39.39,0,1,1-.78,0A.4.4,0,0,1,7,5.72.39.39,0,0,1,7.39,6.11Z"/></g></g></svg>